<svg id="visual" viewBox="0 0 900 200" width="900" height="200" xmlns="http://www.w3.org/2000/svg" xmlns:xlink="http://www.w3.org/1999/xlink" version="1.1"><rect x="0" y="0" width="900" height="200" fill="#68B16A"></rect><path d="M0 63L25 65.2C50 67.3 100 71.7 150 75.5C200 79.3 250 82.7 300 82.7C350 82.7 400 79.3 450 78.7C500 78 550 80 600 78.8C650 77.7 700 73.3 750 68.8C800 64.3 850 59.7 875 57.3L900 55L900 201L875 201C850 201 800 201 750 201C700 201 650 201 600 201C550 201 500 201 450 201C400 201 350 201 300 201C250 201 200 201 150 201C100 201 50 201 25 201L0 201Z" fill="#8dc589"></path><path d="M0 108L25 106.2C50 104.3 100 100.7 150 97.3C200 94 250 91 300 92.8C350 94.7 400 101.3 450 101.3C500 101.3 550 94.7 600 90.8C650 87 700 86 750 86.5C800 87 850 89 875 90L900 91L900 201L875 201C850 201 800 201 750 201C700 201 650 201 600 201C550 201 500 201 450 201C400 201 350 201 300 201C250 201 200 201 150 201C100 201 50 201 25 201L0 201Z" fill="#b7d7a3"></path><path d="M0 137L25 137.7C50 138.3 100 139.7 150 141.8C200 144 250 147 300 145.3C350 143.7 400 137.3 450 132.8C500 128.3 550 125.7 600 123.8C650 122 700 121 750 121.2C800 121.3 850 122.7 875 123.3L900 124L900 201L875 201C850 201 800 201 750 201C700 201 650 201 600 201C550 201 500 201 450 201C400 201 350 201 300 201C250 201 200 201 150 201C100 201 50 201 25 201L0 201Z" fill="#dceac2"></path><path d="M0 159L25 158.7C50 158.3 100 157.7 150 157.2C200 156.7 250 156.3 300 156C350 155.7 400 155.3 450 157.5C500 159.7 550 164.3 600 168.7C650 173 700 177 750 177C800 177 850 173 875 171L900 169L900 201L875 201C850 201 800 201 750 201C700 201 650 201 600 201C550 201 500 201 450 201C400 201 350 201 300 201C250 201 200 201 150 201C100 201 50 201 25 201L0 201Z" fill="#fbfee6"></path></svg>