<svg id="visual" viewBox="0 0 900 200" width="900" height="200" xmlns="http://www.w3.org/2000/svg" xmlns:xlink="http://www.w3.org/1999/xlink" version="1.1"><rect x="0" y="0" width="900" height="200" fill="#FBFEE6"></rect><path d="M0 86L25 83.8C50 81.7 100 77.3 150 73.3C200 69.3 250 65.7 300 62.5C350 59.3 400 56.7 450 60.8C500 65 550 76 600 79.3C650 82.7 700 78.3 750 73.7C800 69 850 64 875 61.5L900 59L900 201L875 201C850 201 800 201 750 201C700 201 650 201 600 201C550 201 500 201 450 201C400 201 350 201 300 201C250 201 200 201 150 201C100 201 50 201 25 201L0 201Z" fill="#d7ebc7"></path><path d="M0 101L25 103.7C50 106.3 100 111.7 150 114.8C200 118 250 119 300 117.3C350 115.7 400 111.3 450 105.8C500 100.3 550 93.7 600 91.8C650 90 700 93 750 95.8C800 98.7 850 101.3 875 102.7L900 104L900 201L875 201C850 201 800 201 750 201C700 201 650 201 600 201C550 201 500 201 450 201C400 201 350 201 300 201C250 201 200 201 150 201C100 201 50 201 25 201L0 201Z" fill="#b5d8a6"></path><path d="M0 129L25 128C50 127 100 125 150 127C200 129 250 135 300 135.3C350 135.7 400 130.3 450 127.3C500 124.3 550 123.7 600 126C650 128.3 700 133.7 750 135.5C800 137.3 850 135.7 875 134.8L900 134L900 201L875 201C850 201 800 201 750 201C700 201 650 201 600 201C550 201 500 201 450 201C400 201 350 201 300 201C250 201 200 201 150 201C100 201 50 201 25 201L0 201Z" fill="#90c487"></path><path d="M0 176L25 173.3C50 170.7 100 165.3 150 163.2C200 161 250 162 300 161.7C350 161.3 400 159.7 450 160.5C500 161.3 550 164.7 600 167.5C650 170.3 700 172.7 750 174.5C800 176.3 850 177.7 875 178.3L900 179L900 201L875 201C850 201 800 201 750 201C700 201 650 201 600 201C550 201 500 201 450 201C400 201 350 201 300 201C250 201 200 201 150 201C100 201 50 201 25 201L0 201Z" fill="#68b16a"></path></svg>