<svg id="visual" viewBox="0 0 900 200" width="900" height="200" xmlns="http://www.w3.org/2000/svg" xmlns:xlink="http://www.w3.org/1999/xlink" version="1.1"><rect x="0" y="0" width="900" height="200" fill="#FFFFFF"></rect><path d="M0 75L25 73.7C50 72.3 100 69.7 150 73.2C200 76.7 250 86.3 300 90.5C350 94.7 400 93.3 450 88C500 82.7 550 73.3 600 78.3C650 83.3 700 102.7 750 109.2C800 115.7 850 109.3 875 106.2L900 103L900 201L875 201C850 201 800 201 750 201C700 201 650 201 600 201C550 201 500 201 450 201C400 201 350 201 300 201C250 201 200 201 150 201C100 201 50 201 25 201L0 201Z" fill="#fdfff3"></path><path d="M0 153L25 151.7C50 150.3 100 147.7 150 149C200 150.3 250 155.7 300 151.3C350 147 400 133 450 127.7C500 122.3 550 125.7 600 129.5C650 133.3 700 137.7 750 143.3C800 149 850 156 875 159.5L900 163L900 201L875 201C850 201 800 201 750 201C700 201 650 201 600 201C550 201 500 201 450 201C400 201 350 201 300 201C250 201 200 201 150 201C100 201 50 201 25 201L0 201Z" fill="#fbfee6"></path></svg>