<svg width="276" height="276" viewBox="0 0 276 276" fill="none" xmlns="http://www.w3.org/2000/svg">
<circle cx="138" cy="138" r="138" fill="#FBFEE6"/>
<circle cx="138" cy="138" r="128" fill="#60B3E1"/>
<path fill-rule="evenodd" clip-rule="evenodd" d="M77.251 251.165C37.206 229.533 10 187.179 10 138.471C10 98.8757 27.9788 63.4792 56.2184 40C70.1586 46.6816 84.8439 56.0386 87 65.4714C89.6692 77.149 84.3233 82.1475 76.905 89.0836C73.2063 92.5418 68.9925 96.4817 65 101.971C59.0239 110.189 57.76 116.298 56.6384 121.719C55.5079 127.184 54.5219 131.949 49 137.471C40.2 146.271 26 151.138 20 152.471C24.3333 160.638 36.2 176.971 49 176.971C65 176.971 72 183.971 72 197.471C72 208.271 82 215.638 87 217.971C82 218.305 72 222.271 72 235.471C72 241.806 74.3029 247.089 77.251 251.165Z" fill="#68B16A"/>
<path fill-rule="evenodd" clip-rule="evenodd" d="M190.396 254.481C235.185 234.552 266.413 189.661 266.413 137.477C266.413 78.5017 226.529 28.8422 172.263 14C169.553 16.0717 167.913 19.13 167.913 23.4766C167.913 34.9899 167.913 37.8621 169.325 39.0316C170.794 40.2491 173.793 39.6208 179.913 44.9766C188.107 52.1461 193.241 49.6268 195.502 46.5587C192.223 52.1739 185.712 62.5904 179.913 69.4766C173.514 77.0766 155.58 83.6433 147.413 85.9766C150.08 99.6433 160.313 123.177 179.913 107.977C199.028 93.1534 188.628 87.27 180.526 86.0599C194.435 87.9741 222.925 93.4884 230.413 100.977C238.013 108.577 251.58 121.477 257.413 126.977C253.413 130.977 240.513 136.577 220.913 126.977C198.685 116.089 183.041 117.138 162.034 118.546C159.887 118.69 157.685 118.838 155.413 118.977C130.913 120.477 118.413 145.977 130.913 164.977C139.966 178.736 170.257 174.665 186.279 172.511C192.381 171.691 196.413 171.149 196.413 171.977C196.413 173.104 194.649 176.066 192.234 180.12C188.221 186.857 182.411 196.612 179.913 205.977C177.527 214.926 184.077 237.041 190.396 254.481Z" fill="#68B16A"/>
<path d="M170.5 57C173 60 172.5 64.5 168 69C166.833 69.8333 163.9 71 161.5 69C159.1 67 159.5 62.8333 160 61L155.5 65.5C153 68 151 67 151 63C151 59 154 61 155.5 57C157 53 152 51 154 48.5C156 46 158 48.5 161.5 52C165 55.5 168 54 170.5 57Z" fill="#68B16A"/>
</svg>
