<svg width="286" height="286" viewBox="0 0 286 286" fill="none" xmlns="http://www.w3.org/2000/svg">
<path fill-rule="evenodd" clip-rule="evenodd" d="M285.875 286L286 286C286 248.472 221.977 218.05 143 218.05C64.0233 218.05 0 248.472 0 286C0 286 0 286 0 286H0.125342C3.29163 266.821 66.0474 251.518 143 251.518C219.952 251.518 282.708 266.821 285.875 286Z" fill="#49393B"/>
<path d="M181.267 218.05C189.291 177.313 192.871 88.8426 143 60.8511" stroke="#68B16A" stroke-width="10"/>
<path d="M55.923 55.5991C71.923 66.5523 131.59 67.9383 159.423 67.2622C138.59 50.0211 94.0231 13.8147 82.4231 6.91827C67.9231 -1.70229 45.923 -4.23775 35.923 10.975C25.923 26.1878 35.923 41.9076 55.923 55.5991Z" fill="#68B16A"/>
<path d="M250.797 84.3093C242.635 78.5412 212.198 77.8112 198 78.1673C208.627 87.2467 231.361 106.314 237.279 109.945C244.675 114.485 255.898 115.82 260.999 107.809C266.1 99.7977 260.999 91.5194 250.797 84.3093Z" fill="#68B16A"/>
<path d="M173.5 96.3474C176.333 89.2481 187.3 76.1652 208.5 80.6276" stroke="#68B16A" stroke-width="5"/>
</svg>
